<svg width="163" height="17" viewBox="0 0 163 17" fill="none" xmlns="http://www.w3.org/2000/svg">
<path d="M138.296 6.32263C138.42 6.70841 138.651 6.70363 138.997 6.56709C139.11 6.43531 139.107 6.30593 138.873 6.18131C139.916 6.15984 140.499 6.2773 140.733 6.40191C140.388 6.53846 138.999 6.69648 138.544 7.09418C139.015 7.4728 141.097 7.17108 141.445 7.16392C141.547 6.5146 141.655 6.12405 141.769 5.99227C142.346 5.85096 143.163 6.09303 144.219 6.71849C144.311 5.55162 145.958 6.6827 146.072 6.55093C146.08 6.93909 145.619 7.07802 145.621 7.20741C145.737 7.20503 146.08 6.93909 146.533 6.412C147.126 7.04701 149.774 6.08641 150.588 6.1991C150.591 6.32849 150.478 6.46026 150.364 6.59204C150.251 6.72381 150.37 6.85081 150.488 6.97781C150.836 6.97065 151.413 6.82934 151.529 6.82695C151.653 7.21273 152.235 7.33019 153.387 6.91816C154.691 8.31518 153.721 6.26407 154.773 6.63075C154.775 6.76014 154.662 6.89192 154.549 7.02369C154.436 7.15546 154.322 7.28724 154.325 7.41662C158.27 7.46489 161.063 7.92517 162.699 8.53871C162.902 7.11067 162.514 5.17702 161.541 2.99651C155.596 1.56555 150.829 1.01644 147.011 1.48334C146.887 1.09756 146.653 0.972944 146.534 0.845944C144.679 0.88412 142.25 1.193 140.619 0.838243C140.273 0.974788 139.926 0.981947 139.58 1.11849C136.671 0.660591 131.931 1.40535 129.135 0.815681C129.256 1.07207 129.143 1.20384 128.795 1.211C128.331 1.22055 128.089 0.707768 127.741 0.714926C127.175 1.37379 126.595 1.38572 126.118 0.74833C124.735 1.16513 121.485 1.10255 120.445 1.25341L120.437 0.865244C118.937 1.28443 115.451 0.967842 114.186 1.51164C114.184 1.38225 114.068 1.38464 113.952 1.38702C113.833 1.26002 113.717 1.26241 113.601 1.26479C111.749 1.43236 107.333 1.00547 105.612 1.94698C103.749 1.59699 97.3829 2.24577 95.4065 2.02756L94.9534 2.55466C94.1338 2.18319 92.8691 2.72699 92.3947 2.21898C90.9008 2.89694 87.072 2.84629 86.2631 2.99238C84.8638 2.63285 80.5873 3.36807 79.0773 3.2697L78.9667 3.53086C78.9694 3.66025 78.9694 3.66025 78.8535 3.66264C78.495 3.15224 76.1948 4.10568 75.2566 3.60721C74.7955 3.74615 73.2909 3.90655 72.8298 4.04548L72.1262 3.67164C70.6322 4.34959 68.8958 4.51477 66.8008 4.16956C65.3042 4.71812 61.7074 4.6627 60.324 5.0795L59.8549 4.83027C59.5044 4.70804 59.3965 5.09859 59.2806 5.10097C58.469 5.11767 56.5006 5.28762 53.6101 5.73544C50.6035 6.18564 48.2874 6.36274 46.6615 6.26676C46.435 6.53031 46.3217 6.66208 46.2057 6.66447C44.8171 6.82249 42.385 7.00198 38.912 7.33234C31.8502 7.99543 26.1771 8.50051 21.4421 9.50405C21.3182 9.11827 21.0863 9.12305 20.8571 9.25721C19.3551 9.547 13.6713 9.53453 12.5146 9.68777C12.1667 9.69493 11.9428 10.0879 11.5923 9.96564C11.2445 9.9728 10.0904 10.2554 9.62399 10.1356C9.50539 10.0086 8.34331 9.90306 6.25369 9.81662C4.16407 9.73018 2.53289 9.37542 1.4761 8.74996C0.783113 8.89366 0.324671 9.16198 0.211391 9.29375C-0.285774 13.3167 2.09164 16.1155 5.46728 16.6933C5.81244 16.5567 6.04166 16.4225 6.1576 16.4202C8.13927 16.8971 9.997 16.9884 12.3132 16.8113C13.4726 16.7874 14.4001 16.7683 15.2091 16.6222C16.7163 16.5912 20.3052 16.2585 21.6938 16.1004C21.6885 15.8417 21.8018 15.7099 22.0337 15.7051C23.0851 16.0718 26.081 15.1041 26.6607 15.0921C27.4776 15.3342 28.753 15.308 30.4894 15.1428C31.5249 14.7331 32.102 14.5918 32.2179 14.5894C34.4208 14.5441 36.1546 14.2495 37.422 13.8351C38.9266 13.6747 40.3152 13.5167 41.3587 13.4952C41.8038 12.58 43.6509 12.1536 44.2413 12.6592C44.3545 12.5275 45.9884 13.0116 46.5654 12.8703C46.6814 12.8679 46.6787 12.7385 46.7893 12.4774C46.9026 12.3456 46.9 12.2162 47.0132 12.0844C46.9079 12.6044 47.6062 12.7194 47.7249 12.8464C47.7222 12.7171 47.8355 12.5853 48.0674 12.5805C48.4152 12.5734 48.5285 12.4416 48.5258 12.3122C48.5231 12.1828 47.7115 12.1995 48.0514 11.8042C48.0407 11.2866 48.6284 11.6629 48.7417 11.5311C48.7603 12.4368 48.763 12.5662 49.2241 12.4273C49.3374 12.2955 49.0895 11.5239 49.5533 11.5144C49.6692 11.512 49.9064 11.766 50.149 12.2788C51.0579 11.354 51.7429 10.8221 52.3173 10.5514C52.204 10.6832 52.3279 11.069 52.4545 11.5841C52.1093 11.7207 51.4137 11.735 50.9526 11.8739C51.5456 12.5089 53.2768 12.085 53.1395 11.0523C53.3741 11.1769 53.4873 11.0451 53.598 10.7839C53.5953 10.6546 53.7086 10.5228 53.8272 10.6498C53.7166 10.9109 53.9564 11.2943 54.5495 11.9293C55.0052 11.5316 56.2753 11.2466 56.6151 10.8513C56.4965 10.7243 56.3806 10.7267 56.1487 10.7315C55.9168 10.7362 55.7982 10.6092 55.9115 10.4774C56.3779 10.5973 57.9851 9.78756 58.0038 10.6933C58.1117 10.3027 58.225 10.171 58.4595 10.2956C58.4675 10.6837 58.1197 10.6909 58.1277 11.0791C58.0144 11.2108 57.8985 11.2132 57.7799 11.0862C57.6639 11.0886 57.6666 11.218 57.6719 11.4768C58.0277 11.8578 59.4084 11.3116 59.7589 11.4338C60.088 10.5209 61.0156 10.5019 61.4927 11.1392C61.6006 10.7487 61.4767 10.3629 61.2368 9.97953C62.5228 10.4708 63.3344 10.4541 63.553 9.80242C63.9035 9.92465 64.3752 10.3033 64.7364 10.943C65.54 10.5382 68.3306 10.8691 69.1209 9.81728C69.4767 10.1983 69.9458 10.4475 70.5255 10.4356C70.6414 10.4332 70.7414 9.65449 71.0919 9.77672L71.3264 9.90133C71.445 10.0283 71.5663 10.2847 71.453 10.4165C71.8008 10.4093 72.1433 10.1434 72.4938 10.2656C72.3646 9.62108 73.1629 8.95744 74.209 9.06536C74.317 8.67481 73.7319 8.42796 74.0797 8.4208C74.6701 8.92642 76.4092 8.89063 76.8863 9.52803C75.6083 9.42489 74.6781 9.31459 74.3249 9.06297C74.3276 9.19236 74.4489 9.44875 74.5781 10.0933C75.0392 9.95437 77.8218 9.8971 78.3909 9.36762C78.5068 9.36524 78.5068 9.36524 78.6254 9.49224C78.6281 9.62163 78.7467 9.74863 78.8627 9.74624C79.4397 9.60492 80.0167 9.46361 80.3672 9.58584C80.3379 8.16257 81.6293 8.91265 82.0824 8.38556C82.209 8.90072 82.217 9.28888 81.8718 9.42543C81.9878 9.42304 84.2773 7.95206 85.2182 8.57991C85.2048 7.93297 85.5474 7.66704 86.1351 8.04327C86.251 8.04088 86.3643 7.90911 86.243 7.65272L86.4722 7.51856C86.5882 7.51618 86.5935 7.77495 86.6015 8.16312C86.952 8.28534 87.0573 7.76541 87.1732 7.76302C87.1812 8.15119 86.9546 8.41473 87.3051 8.53696C87.6529 8.5298 87.7556 7.88048 88.222 8.00032C88.0008 8.52265 88.0088 8.91081 88.3619 9.16243C88.4672 8.64249 88.4592 8.25433 88.3353 7.86855C88.9097 7.59784 89.1389 7.46368 89.2522 7.33191C89.1469 7.85185 89.5027 8.23285 89.5053 8.36224C89.3894 8.36463 89.2761 8.4964 89.0496 8.75995C89.9851 9.12902 90.794 8.98293 90.4355 8.47254C90.3223 8.60431 90.0904 8.60909 89.7426 8.61624L89.7293 7.9693C90.6541 7.82083 91.2338 7.8089 91.3551 8.06529C91.3578 8.19468 90.786 8.59477 90.91 8.98055C91.487 8.83923 94.1563 8.91374 94.6015 7.99848C94.2536 8.00564 92.9889 8.54944 92.6331 8.16843C93.0836 7.51195 94.828 7.73493 95.1652 7.21022C94.82 7.34677 94.7014 7.21977 94.6961 6.96099L95.3918 6.94668C95.2785 7.07845 95.5184 7.46184 95.4051 7.59362C96.214 7.44753 97.1469 7.68721 97.4814 7.03312C97.3654 7.0355 96.6751 7.30859 96.6671 6.92043C96.7804 6.78866 97.592 6.77196 98.9833 6.74332L98.9993 7.51965C98.8807 7.39265 98.9913 7.13149 99.2205 6.99733C99.3365 6.99494 99.4524 6.99255 99.4497 6.86317C99.2178 6.86794 99.0992 6.74094 99.0939 6.48216C99.4418 6.475 99.7896 6.46785 99.9082 6.59485C99.8002 6.9854 99.6896 7.24656 99.8082 7.37356C100.275 7.4934 100.612 6.96869 100.96 6.96154L100.97 7.47909C101.539 6.94961 102.709 7.4433 103.047 6.91859C102.928 6.79159 102.003 6.94006 101.879 6.55429C102.451 6.15419 104.077 6.25018 104.654 6.10886L104.67 6.88518C104.902 6.88041 105.136 7.00503 105.373 7.25903C105.829 6.86132 106.649 7.23279 106.762 7.10101C106.87 6.71046 108.143 6.55483 108.256 6.42305C108.267 6.94061 108.388 7.197 108.504 7.19461C108.733 7.06045 108.844 6.79929 108.833 6.28174L109.178 6.14519C109.523 6.00865 109.642 6.13565 109.647 6.39442C109.413 6.26981 109.299 6.40158 109.305 6.66036C109.421 6.65797 109.545 7.04375 109.893 7.03659C109.979 5.61094 112.298 5.56322 112.891 6.19823C112.775 6.20061 112.546 6.33477 112.201 6.47132C113.015 6.584 113.703 6.18153 114.29 6.55776C114.404 6.42598 114.401 6.2966 114.28 6.04021C113.919 5.40043 114.983 6.41405 115.097 6.28228C114.978 6.15528 114.967 5.63773 115.086 5.76473C115.552 5.88457 115.895 5.61864 116.019 6.00442C115.903 6.0068 115.674 6.14096 115.215 6.40928C115.223 6.79744 116.606 6.38065 116.954 6.37349C116.83 5.98771 116.941 5.72655 117.286 5.59001C117.41 5.97578 118.559 5.43437 118.685 5.94954C118.57 5.95192 117.173 5.72178 117.065 6.11233C117.181 6.10995 117.426 6.75211 117.777 6.87434C117.774 6.74495 118 6.48141 118.462 6.34247C118.807 6.20593 119.036 6.07177 119.149 5.93999C119.265 5.93761 119.392 6.45277 119.74 6.44562C120.077 5.92091 121.597 6.53683 122.048 5.88034C121.697 5.75811 121.463 5.6335 121.344 5.5065C121.463 5.6335 121.924 5.49457 122.274 5.6168C122.393 5.7438 122.401 6.13196 122.52 6.25896C122.522 6.38835 122.406 6.39074 122.29 6.39312C122.293 6.52251 121.945 6.52967 121.953 6.91783C122.53 6.77651 123.086 5.60009 123.687 6.62327C123.679 6.2351 123.79 5.97394 123.906 5.97156C124.021 5.96917 124.73 6.60179 125.313 6.71925C125.534 6.19693 125.645 5.93577 125.761 5.93338C125.879 6.06038 126.583 6.43423 126.701 6.56123C127.036 5.90713 128.78 6.13012 129.236 5.73241C128.888 5.73957 128.656 5.74434 128.654 5.61495C129.455 5.0807 129.919 5.07116 130.048 5.71571L129.816 5.72048C129.584 5.72525 129.587 5.85464 129.705 5.98164C129.932 5.7181 130.048 5.71571 130.056 6.10387C130.746 5.83078 131.56 5.94347 132.383 6.44431C132.369 5.79738 133.771 6.2863 134.227 5.88859C134.23 6.01798 134.704 6.52598 134.707 6.65537C134.823 6.65299 134.923 5.87427 135.389 5.99412C135.392 6.1235 135.394 6.25289 135.281 6.38466C135.194 7.81032 135.979 6.49974 135.51 6.25051C136.317 5.97503 137.012 5.96071 137.6 6.33694L138.288 5.93447L138.296 6.32263ZM146.917 2.52083C146.445 2.14221 147.249 1.73734 147.375 2.2525L147.146 2.38666C147.03 2.38905 146.914 2.39144 146.917 2.52083ZM139.486 2.15598C139.594 1.76543 140.403 1.61934 140.527 2.00512C140.532 2.26389 139.831 2.01943 139.486 2.15598ZM140.758 2.00034C140.756 1.87096 141.338 1.98841 141.454 1.98603L140.758 2.00034ZM150.88 3.4748C150.877 3.34541 150.993 3.34303 151.109 3.34064C150.885 3.73358 150.769 3.73596 150.88 3.4748ZM152.387 3.44378C152.274 3.57556 152.045 3.70972 151.929 3.7121C151.697 3.71687 151.694 3.58749 151.802 3.19694C152.153 3.31917 152.271 3.44617 152.387 3.44378ZM152.393 3.70256C152.39 3.57317 152.39 3.57317 152.503 3.4414L152.501 3.31201C152.617 3.30962 153.083 3.42947 153.199 3.42708C153.202 3.55647 153.086 3.55885 152.97 3.56124C152.622 3.5684 152.509 3.70017 152.627 3.82717C152.511 3.82956 152.509 3.70017 152.393 3.70256ZM153.784 3.67393C153.671 3.8057 153.439 3.81047 153.323 3.81286C153.32 3.68347 153.317 3.55408 153.431 3.42231C153.547 3.41992 153.668 3.67631 153.784 3.67393ZM149.375 3.63521C149.715 3.23989 150.179 3.23034 150.764 3.47719C150.419 3.61373 149.839 3.62566 149.375 3.63521ZM135.193 2.11487C135.18 1.46793 137.973 1.92822 138.089 1.92584C137.752 2.45054 135.654 1.97594 135.193 2.11487ZM145.307 3.20117C145.415 2.81062 148.788 3.25897 149.252 3.24943C147.752 3.66861 146.358 3.56786 145.307 3.20117ZM143.338 3.37112C143.449 3.10996 144.026 2.96864 145.07 2.94716C144.73 3.34248 144.153 3.4838 143.338 3.37112ZM134.147 2.00696C134.144 1.87757 134.492 1.87041 135.072 1.85848C135.085 2.50542 134.611 1.99742 134.147 2.00696ZM140.316 3.04499C142.052 2.87981 143.099 2.98773 143.223 3.3735C141.483 3.40929 135.786 2.74988 134.767 3.93584C134.295 3.55722 134.527 3.55245 134.988 3.41352C134.174 3.30084 133.136 3.58109 132.78 3.20008C131.852 3.21917 129.547 3.91383 129.291 2.75411C129.407 2.75172 130.108 2.99618 130.572 2.98664C130.922 3.10887 130.914 2.72071 131.03 2.71832C133.702 2.92222 135.557 2.88404 136.479 2.60618C136.598 2.73318 137.647 2.97048 137.76 2.83871C138.342 2.95616 139.736 3.05692 140.316 3.04499ZM154.277 5.08765C154.274 4.95826 154.272 4.82887 154.619 4.82171L154.967 4.81456C154.97 4.94394 154.857 5.07572 154.625 5.08049L154.277 5.08765ZM126.84 2.02789C126.953 1.89612 127.649 1.8818 128.695 1.98971C128.474 2.51204 127.304 2.01835 126.84 2.02789ZM129.504 1.84362C129.507 1.97301 129.391 1.9754 129.275 1.97778C129.272 1.8484 129.388 1.84601 129.504 1.84362ZM153.46 4.84557L153.695 4.97019L153.7 5.22896C153.581 5.10196 153.581 5.10196 153.465 5.10435L153.46 4.84557ZM124.171 1.95338C124.632 1.81445 126.139 1.78343 126.603 1.77389C126.268 2.42798 125.459 2.57407 124.171 1.95338ZM149.049 4.67747L148.936 4.80924C148.933 4.67985 148.933 4.67985 149.049 4.67747L149.281 4.67269L149.049 4.67747ZM150.675 4.77345C150.562 4.90522 150.562 4.90522 150.446 4.90761L150.332 5.03938C150.33 4.91 150.33 4.91 150.446 4.90761L150.675 4.77345ZM147.307 4.58387C147.31 4.71326 147.31 4.71326 147.194 4.71564L146.962 4.72041C146.959 4.59103 147.075 4.58864 147.307 4.58387ZM143.945 4.65306C144.058 4.52129 144.287 4.38713 144.519 4.38236C144.638 4.50936 144.409 4.64352 143.945 4.65306ZM121.162 2.27419C121.38 1.62248 122.887 1.59146 122.903 2.36779C122.553 2.24556 121.625 2.26465 121.162 2.27419ZM123.249 2.23125C123.362 2.09947 123.591 1.96531 124.055 1.95577C123.947 2.34632 123.715 2.35109 123.249 2.23125ZM138.609 4.63343C140.103 3.95548 141.61 3.92446 143.365 4.66499C142.09 4.69124 137.449 4.65729 135.594 4.69547C135.932 4.17076 136.859 4.15167 138.609 4.63343ZM109.009 3.55982C116.073 3.02612 122.795 2.75834 129.178 2.88588C127.916 3.55907 125.475 3.3504 123.62 3.38858C122.933 3.79105 122.002 3.68075 120.719 3.31884C120.147 3.71893 118.985 3.6134 118.524 3.75233C118.411 3.88411 118.292 3.75711 118.287 3.49833C117.71 3.63965 116.319 3.66828 114 3.716C111.565 3.76611 109.831 4.06067 108.68 4.4727C109.006 3.43044 107.404 4.49894 107.162 3.98616C107.499 3.46145 108.537 3.18121 109.009 3.55982ZM120.347 2.16151C120.345 2.03212 120.461 2.02973 120.579 2.15674L120.347 2.16151ZM118.263 2.33384L119.069 2.05837C119.185 2.05598 119.304 2.18298 119.191 2.31476L118.727 2.3243C118.492 2.19968 118.376 2.20207 118.379 2.33146L118.263 2.33384ZM117.802 2.47277C117.686 2.47516 117.451 2.35055 117.101 2.22832C117.093 1.84015 117.91 2.08223 117.802 2.47277ZM132.925 4.62096C133.154 4.4868 133.963 4.34071 135.47 4.30969C135.136 4.96379 133.621 4.60664 132.925 4.62096ZM116.866 2.1037C116.869 2.23309 116.869 2.23309 116.753 2.23547L116.64 2.36725L116.866 2.1037ZM114.785 2.40542C114.893 2.01487 115.125 2.0101 115.478 2.26172C115.48 2.39111 115.367 2.52288 115.133 2.39827L114.785 2.40542ZM131.531 4.5202C131.644 4.38843 131.758 4.25666 131.874 4.25427C132.221 4.24711 132.224 4.3765 132.116 4.76705C132 4.76943 131.647 4.51782 131.531 4.5202ZM137.473 5.82178C137.576 5.17246 138.396 5.54392 138.388 5.15576C138.733 5.01921 138.851 5.14621 138.859 5.53437C138.393 5.41453 137.821 5.81462 137.473 5.82178ZM139.091 5.5296C139.086 5.27083 139.55 5.26128 140.364 5.37397C140.372 5.76213 139.908 5.77167 139.091 5.5296ZM147.466 6.65168C147.115 6.52946 147.571 6.13175 147.921 6.25398C147.924 6.38337 147.463 6.5223 147.466 6.65168ZM108.874 2.6565C109.91 2.24686 113.159 2.30944 113.968 2.16335C114.084 2.16096 114.089 2.41974 113.973 2.42213C111.541 2.60162 109.921 2.76441 108.874 2.6565ZM129.681 4.81715C130.01 3.90428 131.054 3.88281 131.42 4.78136C131.304 4.78375 130.021 4.42183 129.681 4.81715ZM126.546 4.6228C127.001 4.22509 128.972 4.18453 129.331 4.69492C127.708 4.72833 126.78 4.74742 126.546 4.6228ZM135.613 5.60118C135.726 5.46941 135.726 5.46941 135.724 5.34002L136.071 5.33286C136.074 5.46225 136.077 5.59164 135.963 5.72341C135.848 5.7258 135.732 5.72818 135.613 5.60118ZM137.465 5.43362C137.465 5.43362 137.352 5.56539 137.007 5.70194C137.12 5.57016 137.12 5.57016 137.236 5.56778L137.465 5.43362ZM124.922 4.65621C125.036 4.52443 125.381 4.38789 125.842 4.24895C126.192 4.37118 126.311 4.49819 126.2 4.75935C125.739 4.89828 125.038 4.65382 124.922 4.65621ZM122.951 4.69677C122.838 4.82854 121.792 4.72063 121.676 4.72301C121.784 4.33247 121.547 4.07846 121.544 3.94907C123.054 4.04744 123.518 4.0379 124.108 4.54352C124.111 4.67291 123.763 4.68007 122.951 4.69677ZM131.197 5.1743C131.323 5.68946 131.887 4.90121 132.245 5.4116C132.132 5.54337 131.903 5.67753 131.555 5.68469C131.205 5.56246 131.086 5.43546 131.197 5.1743ZM132.599 5.66322C132.48 5.53622 132.48 5.53622 132.593 5.40444L132.706 5.27267C132.825 5.39967 132.825 5.39967 132.712 5.53144L132.599 5.66322ZM108.292 2.53904C108.176 2.54143 107.604 2.94152 107.257 2.94868C107.249 2.56051 107.594 2.42397 108.292 2.53904ZM101.225 2.94336C102.724 2.52418 104.695 2.48362 107.133 2.5629C106.097 2.97254 104.126 3.0131 101.225 2.94336ZM117.605 4.15959C119.352 4.51196 120.282 4.62226 120.622 4.22694C120.856 4.35155 120.862 4.61033 120.754 5.00088C118.548 4.91682 112.293 5.30444 110.785 5.33546C111.347 4.41782 114.148 5.26627 114.706 4.21924C114.841 5.12256 115.281 3.94853 115.747 4.06837C115.75 4.19776 115.75 4.19776 115.636 4.32953C115.523 4.46131 115.526 4.5907 115.644 4.7177C116.68 4.30806 117.281 5.33123 117.605 4.15959ZM128.187 5.49511L128.419 5.49034L128.425 5.74911L128.193 5.75389L128.187 5.49511ZM125.054 5.43015C125.402 5.42299 125.521 5.54999 125.526 5.80876L125.062 5.81831L125.054 5.43015ZM122.857 5.73425C122.854 5.60487 123.202 5.59771 123.782 5.58578C123.671 5.84694 123.439 5.85171 122.857 5.73425ZM100.063 2.83783C100.408 2.70129 100.527 2.82829 100.532 3.08706L100.068 3.09661L100.063 2.83783ZM101.13 3.98085C104.255 3.65765 106.226 3.61709 107.041 3.72977C106.935 4.24971 105.776 4.27357 105.652 3.88779C103.921 4.31175 102.414 4.34277 101.13 3.98085C101.133 4.11024 101.136 4.23962 101.022 4.3714L101.025 4.50078C100.211 4.3881 98.7035 4.41912 96.5033 4.59384C94.3057 4.89795 92.7984 4.92897 91.9789 4.55751L91.9895 5.07506C92.1134 5.46083 93.033 5.05358 93.3835 5.17581C92.9277 5.57352 91.7683 5.59738 91.4231 5.73392C91.4204 5.60454 91.4178 5.47515 91.5311 5.34338C91.6443 5.2116 91.6417 5.08221 91.639 4.95283C90.3637 4.97907 87.9395 5.54673 87.1146 4.91649C87.0013 5.04827 86.0765 5.19674 84.5692 5.22776C85.0197 4.57128 86.8827 4.92126 87.3385 4.52356C87.8023 4.51401 90.4769 4.8473 91.4018 4.69882C91.5178 4.69644 92.2027 4.16457 92.3187 4.16219C92.6665 4.15503 93.0223 4.53603 93.3702 4.52887C93.4888 4.65587 94.0605 4.25578 94.1764 4.2534C94.7535 4.11208 97.0723 4.06436 101.13 3.98085ZM112.97 4.38441C112.856 4.51619 112.625 4.52096 112.509 4.52335C112.622 4.39157 112.738 4.38918 112.97 4.38441ZM99.1406 3.1157C99.138 2.98631 99.3672 2.85215 99.831 2.84261C99.831 2.84261 99.6017 2.97677 99.1406 3.1157ZM97.2882 3.28326C97.3935 2.76332 98.9061 2.99108 99.022 2.9887C98.9167 3.50863 97.6281 2.88794 97.2882 3.28326ZM93.6993 3.616C94.1498 2.95952 96.35 2.7848 96.4793 3.42935C95.8916 3.05312 94.1631 3.60646 93.6993 3.616ZM108.119 5.39034C108.229 5.12918 108.224 4.8704 108.216 4.48224C108.335 4.60924 108.804 4.85847 109.621 5.10055C109.507 5.23232 108.93 5.37364 108.119 5.39034ZM109.734 4.96877C110.074 4.57345 110.777 4.9473 110.443 5.6014C110.327 5.60378 110.327 5.60378 110.208 5.47678C109.742 5.35693 109.623 5.22993 109.734 4.96877ZM105.563 5.18406C105.671 4.79351 105.9 4.65935 106.129 4.52519C106.248 4.65219 106.258 5.16974 106.609 5.29197C105.333 5.31822 104.535 5.98186 103.832 5.60801C103.945 5.47624 104.522 5.33492 105.563 5.18406ZM92.3054 3.51525C92.8771 3.11515 93.2223 2.97861 93.5781 3.35961C93.4648 3.49139 93.117 3.49854 92.3054 3.51525ZM104.506 4.55859C104.509 4.68798 104.393 4.69037 104.277 4.69275L104.161 4.69514C104.158 4.56575 104.158 4.56575 104.274 4.56336L104.506 4.55859ZM107.65 5.14111C107.542 5.53166 107.312 5.66582 106.965 5.67298C106.73 5.54836 106.727 5.41897 106.835 5.02842C106.838 5.15781 107.07 5.15304 107.65 5.14111ZM113.234 5.93229C113.226 5.54413 113.811 5.79098 113.703 6.18153L113.471 6.1863L113.234 5.93229ZM91.8363 3.26601C91.9522 3.26363 92.0708 3.39063 92.0762 3.64941C85.9392 4.16403 81.4201 4.38647 78.7535 4.44135C80.2554 4.15155 82.5689 3.84506 85.8126 3.64886C88.9404 3.45505 91.0274 3.4121 91.8363 3.26601ZM100.798 4.76433C100.685 4.89611 100.685 4.89611 100.567 4.7691C100.564 4.63972 100.68 4.63733 100.798 4.76433ZM98.3876 5.97893C99.2939 4.92474 101.507 5.39695 103.247 5.36116C102.448 6.0248 98.8434 5.58122 98.3876 5.97893ZM105.476 6.60971C105.457 5.70399 107.558 6.30798 108.019 6.16905C107.903 6.17144 106.975 6.19053 106.873 6.83985C106.754 6.71285 106.288 6.593 105.476 6.60971ZM96.975 4.97246C96.9777 5.10185 96.8617 5.10423 96.7458 5.10662C96.7431 4.97723 96.8591 4.97484 96.975 4.97246ZM95.2465 5.5258C95.3651 5.6528 95.5917 5.38925 95.6997 4.9987C95.9422 5.51148 96.2953 5.7631 96.875 5.75117C96.6565 6.40288 95.4864 5.90919 94.7961 6.18228C94.904 5.79173 94.9014 5.66234 94.6668 5.53773C94.4349 5.5425 94.3217 5.67427 94.4403 5.80128C94.5589 5.92828 94.4456 6.06005 94.3323 6.19182C93.9818 6.0696 93.8712 6.33076 93.4048 6.21091C93.4021 6.08153 93.6313 5.94737 93.7446 5.81559C93.9738 5.68143 93.9712 5.55204 93.6207 5.42981C94.6562 5.02018 95.1226 5.14002 95.2465 5.5258ZM105.002 6.1017L105.236 6.22632L105.244 6.61448C105.126 6.48748 105.126 6.48748 105.01 6.48986L105.002 6.1017ZM97.1123 6.00517C97.1096 5.87579 97.2255 5.8734 97.3388 5.74163C97.4521 5.60985 97.568 5.60747 97.6813 5.47569L97.7999 5.60269L98.0371 5.8567C97.9239 5.98847 97.2282 6.00279 97.1123 6.00517ZM100.14 6.59008C101.176 6.18044 101.642 6.30028 101.539 6.94961C101.415 6.56383 100.259 6.71708 100.14 6.59008ZM90.8381 5.48708C91.0726 5.6117 91.1912 5.7387 91.0779 5.87047C91.4284 5.9927 91.5497 6.24909 91.2072 6.51502C90.9753 6.51979 90.97 6.26102 91.0779 5.87047C90.962 5.87286 90.6062 5.49185 90.4929 5.62363L90.8381 5.48708ZM92.4746 6.10061C92.4719 5.97123 92.5879 5.96884 92.9357 5.96168C92.9437 6.34984 92.4826 6.48878 92.4746 6.10061ZM71.3412 4.98222C71.9182 4.8409 74.3477 4.53202 78.6349 4.31435C77.0223 4.8653 74.5902 5.04479 71.3412 4.98222C71.112 5.11637 70.6509 5.25531 69.8393 5.27201C69.8233 4.49568 70.9934 4.98937 71.3412 4.98222ZM77.5074 5.89086C79.4624 5.07397 81.66 4.76986 84.3347 5.10315C83.4151 5.5104 82.1424 5.66603 80.4033 5.70182C78.6668 5.867 77.7393 5.88609 77.5074 5.89086ZM88.0634 5.93251C88.5139 5.27602 89.9132 5.63556 89.9318 6.54127C89.5813 6.41904 89.2282 6.16742 89.1043 5.78164C88.9883 5.78403 88.4139 6.05474 88.0634 5.93251ZM95.9635 6.54658C96.0794 6.5442 96.0794 6.5442 96.198 6.6712L96.206 7.05936C96.0874 6.93236 96.0874 6.93236 95.9715 6.93475L95.9635 6.54658ZM86.2084 5.97068C86.2031 5.71191 86.5509 5.70475 87.2492 5.81982C87.0226 6.08337 86.6748 6.09053 86.2084 5.97068ZM90.2797 6.53411C90.277 6.40472 90.3903 6.27295 90.6222 6.26818C90.6248 6.39756 90.5116 6.52934 90.2797 6.53411ZM82.7354 6.30104C83.763 5.50324 84.6905 5.48415 85.7473 6.10961C85.3968 5.98738 83.3152 6.28911 82.7354 6.30104ZM81.4601 6.32728C81.4521 5.93912 82.0345 6.05658 82.1477 5.92481L82.2664 6.05181L81.4601 6.32728ZM92.2693 7.39926C92.156 7.53104 92.156 7.53104 92.0374 7.40403C91.9188 7.27703 91.8002 7.15003 91.6843 7.15242L92.1481 7.14287C92.1507 7.27226 92.1534 7.40165 92.2693 7.39926ZM94.2403 7.3587C94.1244 7.36109 94.0085 7.36347 93.8952 7.49525C94.0085 7.36347 94.1244 7.36109 94.2403 7.3587ZM75.1912 6.06797C75.6417 5.41148 76.4506 5.26539 77.5021 5.63208C77.3995 6.28141 75.5364 5.93142 75.1912 6.06797ZM91.1099 7.42312C90.7647 7.55967 90.6408 7.17389 90.5249 7.17628C90.5222 7.04689 90.6381 7.0445 90.87 7.03973C91.2179 7.03257 91.3365 7.15957 91.1099 7.42312ZM80.0715 6.4853C79.9502 6.22891 80.1794 6.09475 80.5272 6.0876C80.4166 6.34876 80.3033 6.48053 80.0715 6.4853ZM80.883 6.4686C80.8804 6.33921 80.9937 6.20744 81.3415 6.20028C81.2309 6.46144 81.0016 6.5956 80.883 6.4686ZM83.5577 6.80189C83.555 6.6725 83.6683 6.54073 84.0161 6.53357C83.9055 6.79473 83.6763 6.92889 83.5577 6.80189ZM88.0954 7.48516C88.0927 7.35577 88.3246 7.351 88.7857 7.21207C88.7937 7.60023 88.2114 7.48277 88.0954 7.48516ZM69.3782 5.41094C69.3702 5.02278 69.4835 4.891 69.8313 4.88385L69.7207 5.14501C69.61 5.40617 69.4968 5.53794 69.3782 5.41094ZM68.1161 6.08413C69.6234 6.05311 73.5601 5.71321 75.07 5.81158C74.9673 6.4609 72.9857 5.98391 72.5299 6.38162C71.5944 6.01254 69.2888 6.7072 68.2427 6.59929C68.2507 6.98745 68.949 7.10252 68.6118 7.62723C68.0241 7.251 67.4444 7.26293 66.7621 7.92418C66.6328 7.27963 65.8292 7.6845 65.7106 7.5575C65.8239 7.42572 66.6302 7.15024 67.9029 6.99461C68.0161 6.86284 67.7763 6.47945 68.1161 6.08413ZM78.4456 6.38932C78.6775 6.38455 78.7908 6.25277 78.7854 5.994C79.2625 6.63139 77.8925 7.69513 77.3048 7.31889C77.7659 7.17996 77.8686 6.53064 77.057 6.54734C77.0543 6.41795 77.1702 6.41557 77.5154 6.27902C77.7499 6.40364 77.8659 6.40125 77.9792 6.26948L77.9925 6.91642C78.1058 6.78464 78.219 6.65287 78.3376 6.77987L78.335 6.65048C78.3323 6.52109 78.3323 6.52109 78.4456 6.38932ZM91.587 8.06052C91.9321 7.92397 92.1614 7.78981 92.5119 7.91204C92.5252 8.55898 91.595 8.44868 91.587 8.06052ZM67.755 5.44434C67.7523 5.31496 67.8656 5.18318 68.2108 5.04664L68.5586 5.03948L68.332 5.30303C67.9842 5.31018 67.7523 5.31496 67.755 5.44434ZM86.82 7.5114C86.8174 7.38202 87.0493 7.37724 87.629 7.36531C87.6316 7.4947 87.5157 7.49709 87.2838 7.50186L86.82 7.5114ZM66.1318 5.47775C66.2397 5.0872 67.2779 4.80695 67.4018 5.19273C67.1726 5.32689 66.7115 5.46582 66.1318 5.47775ZM75.671 6.83475C75.6683 6.70536 75.7816 6.57359 75.8949 6.44181L76.1268 6.43704C76.1321 6.69582 76.0188 6.82759 75.671 6.83475ZM76.5932 6.55688C76.4799 6.68866 76.4799 6.68866 76.364 6.69104L76.248 6.69343C76.2454 6.56404 76.3613 6.56166 76.5932 6.55688ZM66.0158 5.48013L65.5521 5.48968C65.5494 5.36029 65.8972 5.35313 66.0158 5.48013ZM79.1572 7.15133C79.3864 7.01717 79.5024 7.01478 79.5104 7.40295L79.1626 7.41011L79.1572 7.15133ZM64.0422 5.39131L64.6219 5.37938C64.7405 5.50638 64.5113 5.64054 64.0475 5.65008L64.0422 5.39131ZM74.1584 6.60699L73.9318 6.87054C73.8159 6.87292 73.6973 6.74592 73.8106 6.61415C73.9292 6.74115 74.0451 6.73876 74.1584 6.60699ZM80.7991 8.02364C80.907 7.63309 81.8372 7.74339 81.9505 7.61162C82.0664 7.60923 82.0691 7.73862 82.185 7.73623C82.1877 7.86562 82.1877 7.86562 82.0744 7.99739L80.7991 8.02364ZM72.0874 7.42626C72.4326 7.28972 72.7751 7.02379 72.883 6.63324C72.9963 6.50146 73.1149 6.62846 73.1229 7.01663C73.2442 7.27302 73.2469 7.4024 73.3628 7.40002C72.7911 7.80011 72.3273 7.80966 72.0874 7.42626ZM73.4654 6.75069C73.4628 6.62131 73.6946 6.61653 73.6973 6.74592L73.4654 6.75069ZM61.0357 5.84151C61.6074 5.44142 63.0014 5.54217 63.3492 5.53501C62.6615 5.93749 61.8499 5.95419 61.0357 5.84151ZM65.0043 7.05426C65.684 6.26362 66.6089 6.11514 67.6603 6.48183C67.2072 7.00893 65.4654 6.91533 65.0043 7.05426ZM80.1061 8.16734C80.1034 8.03796 80.1007 7.90857 80.214 7.77679C80.4459 7.77202 80.5645 7.89902 80.5698 8.1578L80.1061 8.16734ZM70.7988 6.80557L71.1546 7.18658C71.036 7.05958 70.92 7.06196 70.8041 7.06435L70.7988 6.80557ZM71.5051 7.30881C71.6183 7.17703 71.6157 7.04765 71.613 6.91826C71.7316 7.04526 71.7343 7.17465 71.7369 7.30403C71.6237 7.43581 71.6237 7.43581 71.5051 7.30881ZM78.3589 7.81497C78.5882 7.68081 78.8227 7.80543 79.1785 8.18643C79.0653 8.31821 78.7121 8.06659 78.3669 8.20313L78.3589 7.81497ZM60.9197 5.84389C60.8064 5.97567 60.6905 5.97805 60.4586 5.98283C60.456 5.85344 60.5719 5.85105 60.9197 5.84389ZM59.07 6.14085C59.062 5.75268 59.2939 5.74791 59.6444 5.87014C59.5311 6.00191 59.1859 6.13846 59.07 6.14085ZM59.4444 7.42756C60.4773 6.88854 63.721 6.69234 64.5299 6.54625C63.7316 7.20989 61.9978 7.50446 59.4444 7.42756ZM79.545 9.08499C79.4211 8.69921 80.0008 8.68728 79.9981 8.55789C80.1167 8.68489 80.2353 8.8119 80.2406 9.07067C80.0114 9.20483 79.7795 9.2096 79.545 9.08499ZM57.9132 6.29409C58.0212 5.90354 58.2557 6.02816 58.8381 6.14562C58.8408 6.27501 58.4929 6.28216 57.9132 6.29409ZM77.9138 8.73023C77.9058 8.34207 78.6095 8.71591 78.6068 8.58652L78.7227 8.58414C78.7254 8.71353 78.7254 8.71353 78.8414 8.71114L78.8467 8.96992C78.3829 8.97946 78.0324 8.85723 77.9138 8.73023ZM54.2084 6.62922C54.6615 6.10213 57.2176 6.30841 57.6787 6.16948C57.1096 6.69896 55.9529 6.85221 54.2084 6.62922ZM75.8189 8.38501C75.7136 8.90495 75.4817 8.90972 75.2392 8.39694L75.8189 8.38501ZM64.5512 7.58136C64.6592 7.19081 64.7724 7.05903 65.1229 7.18126C65.3548 7.17649 65.4734 7.30349 65.3655 7.69404C65.0176 7.7012 64.6698 7.70836 64.5512 7.58136ZM73.1469 8.18112L73.4947 8.17396C73.3814 8.30573 73.2681 8.43751 72.9203 8.44466L73.1469 8.18112ZM53.5127 6.64354C53.4048 7.03409 53.1729 7.03886 52.8171 6.65785C52.8144 6.52846 52.9304 6.52608 53.049 6.65308L53.5127 6.64354ZM57.2469 7.73167C57.7026 7.33397 58.7461 7.31249 59.0913 7.17595C59.0993 7.56411 58.4063 7.70781 58.7648 8.21821C58.6488 8.22059 58.2983 8.09836 58.1824 8.10075C58.1797 7.97136 58.2957 7.96897 58.4116 7.96659C58.4063 7.70781 58.2877 7.58081 57.9425 7.71736C57.5973 7.8539 57.3655 7.85868 57.2469 7.73167ZM62.243 8.14663C62.2403 8.01724 62.2377 7.88785 62.351 7.75608L62.3483 7.62669C62.4669 7.75369 62.5828 7.7513 62.6988 7.74892L63.0466 7.74176C62.7015 7.87831 62.4722 8.01247 62.243 8.14663ZM72.0034 8.9813L72.2353 8.97653C72.238 9.10592 72.2407 9.23531 72.1274 9.36708L72.0114 9.36947L72.0034 8.9813ZM51.7789 6.9381C51.8896 6.67694 52.2347 6.54039 52.5852 6.66262C52.4719 6.7944 52.2427 6.92856 51.7789 6.9381ZM50.8541 7.08658C50.8461 6.69841 51.078 6.69364 51.4285 6.81587C51.4364 7.20404 51.2046 7.20881 50.8541 7.08658ZM68.0561 8.80365C68.0587 8.93304 68.0587 8.93304 67.9428 8.93543L67.8269 8.93781C67.8242 8.80842 67.9402 8.80604 68.0561 8.80365ZM55.9742 7.88731C55.8556 7.76031 56.3167 7.62137 56.314 7.49199L56.322 7.88015L55.9742 7.88731ZM71.4317 9.3814C71.4344 9.51078 71.3184 9.51317 71.0866 9.51794C71.0839 9.38855 71.1998 9.38617 71.4317 9.3814ZM49.7 7.36921C49.5814 7.24221 49.5787 7.11282 49.692 6.98105C50.0372 6.8445 50.385 6.83735 50.7355 6.95958C50.7435 7.34774 49.8079 6.97866 49.7 7.36921ZM65.6533 10.4064C65.8772 10.0135 65.9851 9.62292 66.0877 8.9736C66.4356 8.96644 66.4382 9.09583 66.2117 9.35938C66.5675 9.74038 66.8047 9.99439 66.9206 9.992C66.8074 10.1238 66.4622 10.2603 66.1144 10.2675L65.6533 10.4064ZM72.0194 9.75763C72.0221 9.88702 71.9061 9.8894 71.7875 9.7624L72.0194 9.75763ZM48.306 7.26846C48.2954 6.75091 48.9963 6.99537 49.2282 6.99059C48.8857 7.25653 48.5406 7.39307 48.306 7.26846ZM54.0058 8.05726C54.0031 7.92787 54.3483 7.79132 55.1599 7.77462C55.0466 7.9064 54.5855 8.04533 54.0058 8.05726ZM43.5604 7.75445C44.5905 7.08604 46.1031 7.31379 47.8422 7.278C47.2679 7.54871 45.7633 7.70911 43.5604 7.75445ZM52.5012 8.21766C52.3826 8.09066 52.8437 7.95173 52.8411 7.82234C52.7304 8.0835 52.6172 8.21528 52.5012 8.21766ZM55.0599 8.55333C54.9413 8.42633 55.1706 8.29217 55.6343 8.28263C55.521 8.4144 55.4078 8.54618 55.0599 8.55333ZM65.2868 9.50785C65.3001 10.1548 64.7204 10.1667 64.823 9.5174L65.2868 9.50785ZM67.8455 9.84352C67.8482 9.97291 67.7322 9.9753 67.6163 9.97768C67.6136 9.8483 67.7296 9.84591 67.8455 9.84352ZM49.2602 8.54325C49.2575 8.41386 49.6027 8.27731 50.1824 8.26538C49.8425 8.6607 49.6107 8.66548 49.2602 8.54325ZM42.0558 7.91485C42.1691 7.78308 42.9807 7.76638 43.3285 7.75922C43.3391 8.27677 42.4116 8.29586 42.0558 7.91485ZM40.7778 7.81171C41.1256 7.80455 41.3575 7.79978 41.4761 7.92678C41.5947 8.05378 41.4814 8.18556 41.1309 8.06333L40.7831 8.07049L40.7778 7.81171ZM39.5051 7.96734C39.6183 7.83557 39.9662 7.82841 40.5485 7.94587C40.4353 8.07764 40.0874 8.0848 39.5051 7.96734ZM46.4776 8.60051C46.5935 8.59812 46.7095 8.59574 46.8281 8.72274L46.8334 8.98152C46.7148 8.85451 46.5988 8.8569 46.4829 8.85929L46.4776 8.60051ZM45.5527 8.74899C45.5554 8.87837 45.4394 8.88076 45.3235 8.88315C45.3208 8.75376 45.4367 8.75137 45.5527 8.74899ZM54.876 10.8871C54.8733 10.7577 54.9866 10.6259 55.3318 10.4894C55.5636 10.4846 55.6823 10.6116 55.569 10.7434C55.453 10.7458 54.7574 10.7601 54.876 10.8871ZM54.1723 10.5132C54.2883 10.5108 54.4069 10.6379 54.4149 11.026C54.2989 11.0284 54.0617 10.7744 53.9458 10.7768L54.1723 10.5132ZM49.4294 11.1286L49.4267 10.9992L49.6586 10.9945L49.6639 11.2532L49.5506 11.385L49.3188 11.3898L49.4294 11.1286ZM48.7364 11.2723C48.739 11.4017 48.6231 11.4041 48.2726 11.2819L48.7364 11.2723ZM45.1475 11.6051L45.7272 11.5931C45.7299 11.7225 45.5007 11.8567 45.1528 11.8638L45.1475 11.6051ZM149.908 6.98974C149.682 7.25329 149.685 7.38268 149.919 7.50729C150.035 7.50491 150.032 7.37552 150.03 7.24613L150.143 7.11436C150.027 7.11674 150.027 7.11674 149.908 6.98974ZM148.293 7.41131C148.407 7.27954 148.407 7.27954 148.404 7.15015L147.94 7.15969L148.293 7.41131ZM129.136 6.51112L129.371 6.63574L129.487 6.63335L129.481 6.37458L129.249 6.37935L129.131 6.25235L129.136 6.51112ZM111.616 6.22447C111.502 6.35625 111.505 6.48563 111.392 6.61741C111.858 6.73725 112.087 6.60309 112.195 6.21254L111.616 6.22447ZM110.923 6.36818C110.459 6.37772 110.227 6.38249 110.114 6.51427C110.701 6.8905 111.049 6.88334 110.923 6.36818ZM103.281 7.0432C104.093 7.0265 104.438 6.88996 104.546 6.49941L103.281 7.0432ZM107.819 7.72648C107.932 7.5947 107.811 7.33831 107.692 7.21131C107.458 7.08669 107.342 7.08908 107.234 7.47963C107.35 7.47724 107.703 7.72886 107.819 7.72648ZM108.628 7.58039C108.744 7.578 108.86 7.57561 108.857 7.44623L108.741 7.44861C108.625 7.451 108.625 7.451 108.628 7.58039ZM98.1744 6.88941C98.1797 7.14819 98.301 7.40458 98.4196 7.53158C98.5329 7.39981 98.6435 7.13864 98.6381 6.87987L98.1744 6.88941ZM100.738 7.48386C100.391 7.49102 100.277 7.62279 100.396 7.74979C100.515 7.87679 100.63 7.87441 100.746 7.87202C100.86 7.74025 100.854 7.48147 100.738 7.48386ZM102.135 7.714C102.022 7.84578 102.022 7.84578 101.906 7.84816C101.793 7.97994 101.793 7.97994 101.795 8.10932C101.914 8.23633 102.03 8.23394 102.143 8.10217L102.135 7.714ZM102.949 7.82669C102.833 7.82907 102.604 7.96323 102.378 8.22678C102.612 8.3514 102.841 8.21724 102.949 7.82669ZM99.7029 7.8935C99.3524 7.77127 99.0046 7.77843 98.894 8.03959L99.2418 8.03243C99.5923 8.15466 99.7056 8.02288 99.7029 7.8935ZM86.8387 8.41712C86.844 8.67589 86.7281 8.67828 86.6095 8.55128C86.6175 8.93944 86.6201 9.06883 86.7387 9.19583C87.0839 9.05928 87.1892 8.53935 86.8387 8.41712ZM83.7189 8.99909C83.3604 8.4887 83.0206 8.88402 83.0312 9.40157C83.2631 9.3968 83.4924 9.26264 83.7189 8.99909ZM81.1682 9.05158C80.8204 9.05874 80.5911 9.1929 80.4779 9.32467C80.8337 9.70568 81.2974 9.69614 81.1682 9.05158ZM73.8825 10.1076C73.7639 9.98061 73.6453 9.85361 73.2948 9.73138C73.1815 9.86316 73.0656 9.86554 73.1842 9.99254C73.532 9.98538 73.7639 9.98061 73.8825 10.1076ZM61.9538 11.0003C62.0697 10.9979 62.1857 10.9955 62.183 10.8662C62.067 10.8685 62.067 10.8685 61.9538 11.0003ZM57.3001 10.3194C57.3028 10.4488 57.1895 10.5806 57.0735 10.583C56.9603 10.7147 56.8443 10.7171 56.7311 10.8489C57.0789 10.8417 57.424 10.7052 57.3001 10.3194ZM43.2058 13.0689C43.4377 13.0641 43.5536 13.0617 43.5509 12.9323C43.3191 12.9371 43.2031 12.9395 43.2058 13.0689Z" fill="#FF4026"/>
</svg>
