<svg width="193" height="54" viewBox="0 0 193 54" fill="none" xmlns="http://www.w3.org/2000/svg">
<path d="M15.0155 11.362H0.0371094V0H45.5596V11.362H29.9612V52.0141H15.0481L15.0155 11.362Z" fill="white"/>
<path d="M32.9463 15.4343H46.1299V38.3836C46.1299 38.3836 46.3583 41.8598 50.1763 41.8598C53.9617 41.8598 54.3533 38.3836 54.3533 38.3836V15.4343H67.9937V52.739H54.3533V49.2628C54.3533 49.2628 50.1437 53.9621 43.1603 53.9621C36.9275 53.9621 34.48 49.2628 34.48 49.2628C34.48 49.2628 32.9463 46.6557 32.9463 42.9864C32.9463 39.2849 32.9463 15.4343 32.9463 15.4343Z" fill="white"/>
<path d="M82.3365 15.4343H68.9897V52.739H82.6302V32.0106C82.6302 32.0106 83.1849 27.2791 90.3315 26.4101H92.6157V15.7562H90.2988C90.2988 15.7562 84.2944 16.3356 82.3365 20.9705V15.4343Z" fill="white"/>
<path d="M182.631 15.4343H169.284V52.739H182.925V32.0106C182.925 32.0106 183.479 27.2791 190.626 26.4101H192.91V15.7562H190.593C190.593 15.7562 184.589 16.3356 182.631 20.9705V15.4343Z" fill="white"/>
<path d="M107.475 14.7614H94.0635V52.066H107.378V30.2433C107.378 30.2433 108.193 26.3808 111.489 26.3808C114.785 26.3808 115.568 30.2755 115.568 30.2755V52.0339H128.817V24.7393C128.817 24.7393 128.654 13.8923 119.06 13.8923C119.06 13.8923 112.501 13.667 107.475 18.9778V14.7614Z" fill="white"/>
<path d="M148.348 13.891C148.348 13.891 130.107 13.6979 130.107 33.7182C130.107 33.7182 129.878 53.3522 148.348 53.3522C148.348 53.3522 164.501 54.6397 167.242 39.0934H154.842C154.842 39.0934 153.178 44.2111 149.001 44.2111C144.824 44.2111 143.29 38.2565 143.062 36.9047H167.634C167.601 36.9047 169.559 13.891 148.348 13.891ZM143.16 28.2786C143.16 28.2786 144.563 22.5815 148.707 22.5815C153.635 22.5815 154.712 28.2786 154.712 28.2786H143.16Z" fill="white"/>
</svg>
