<svg width="35" height="14" viewBox="0 0 35 14" fill="none" xmlns="http://www.w3.org/2000/svg">
<path fill-rule="evenodd" clip-rule="evenodd" d="M27.6637 13.7039C27.2652 13.2833 27.3369 12.6469 27.843 12.1128L31.8078 8.00291L1.04467 8.00297C0.417575 8.00297 -0.000487738 7.60298 -0.000487686 7.003C-0.000487635 6.40302 0.417575 6.00303 1.04467 6.00303L31.8368 6.00297L27.8444 1.86285C27.3375 1.32757 27.265 0.690378 27.6633 0.269865C28.0615 -0.150648 28.665 -0.074138 29.172 0.461137L34.5158 6.00275C34.6195 6.11224 34.705 6.226 34.7721 6.3413C34.9177 6.51114 34.9995 6.73746 34.9995 7.00294C34.9995 7.3039 34.8943 7.55452 34.7103 7.7296C34.6528 7.81624 34.5847 7.9016 34.5062 7.9845L29.1714 13.5146C28.6652 14.0487 28.0622 14.1244 27.6637 13.7039Z" fill="white"/>
</svg>
