<?xml version="1.0" encoding="utf-8"?>
<!-- Generator: Adobe Illustrator 25.1.0, SVG Export Plug-In . SVG Version: 6.00 Build 0)  -->
<svg version="1.1" id="Layer_1" xmlns="http://www.w3.org/2000/svg" xmlns:xlink="http://www.w3.org/1999/xlink" x="0px" y="0px"
	 width="15px" height="15px" viewBox="0 0 15 15" style="enable-background:new 0 0 15 15;" xml:space="preserve">
<style type="text/css">
	.st0{fill-rule:evenodd;clip-rule:evenodd;fill:#FFFFFF;}
</style>
<path class="st0" d="M14.5,1.7c0.4-0.4,0.4-1,0-1.4c-0.4-0.4-1-0.4-1.4,0L7.5,5.9L2,0.3c-0.4-0.4-1-0.4-1.4,0s-0.4,1,0,1.4l5.5,5.5
	L0.3,13c-0.4,0.4-0.4,1,0,1.4c0.4,0.4,1,0.4,1.4,0l5.8-5.8l5.8,5.8c0.4,0.4,1,0.4,1.4,0c0.4-0.4,0.4-1,0-1.4L8.9,7.3L14.5,1.7z"/>
</svg>
