<svg width="35" height="14" viewBox="0 0 35 14" fill="none" xmlns="http://www.w3.org/2000/svg">
<path fill-rule="evenodd" clip-rule="evenodd" d="M27.6642 13.7293C27.2656 13.3079 27.3374 12.6703 27.8435 12.1352L31.8082 8.01771L1.04516 8.01776C0.418063 8.01776 5.43623e-07 7.61703 5.94817e-07 7.01594C6.46011e-07 6.41485 0.418063 6.01412 1.04516 6.01412L31.8373 6.01406L27.8449 1.86625C27.338 1.32998 27.2655 0.691604 27.6638 0.270311C28.062 -0.150981 28.6655 -0.0743297 29.1725 0.46194L34.5163 6.01383C34.62 6.12353 34.7055 6.2375 34.7726 6.35301C34.9182 6.52317 35 6.74991 35 7.01588C35 7.3174 34.8948 7.56849 34.7108 7.74389C34.6533 7.83069 34.5852 7.91621 34.5067 7.99926L29.1719 13.5396C28.6657 14.0747 28.0627 14.1506 27.6642 13.7293Z" fill="#FF4026"/>
</svg>
